<svg width="24" height="24" viewBox="0 0 24 24" fill="none" xmlns="http://www.w3.org/2000/svg">
<path d="M20.0214 2.33453H4.38779C2.75323 2.33453 1.42334 3.66416 1.42334 5.29898V14.8664C1.42334 16.4976 2.74744 17.8251 4.37726 17.8309V22.1725L10.6166 17.8309H20.0214C21.6559 17.8309 22.9858 16.501 22.9858 14.8664V5.29898C22.9858 3.66416 21.6559 2.33453 20.0214 2.33453ZM21.7224 14.8664C21.7224 15.8043 20.9594 16.5674 20.0214 16.5674H10.2202L5.64069 19.7542V16.5674H4.38779C3.44982 16.5674 2.68677 15.8043 2.68677 14.8664V5.29898C2.68677 4.36089 3.44982 3.59796 4.38779 3.59796H20.0214C20.9594 3.59796 21.7224 4.36089 21.7224 5.29898V14.8664Z" fill="#FF6722"/>
<path d="M7.19434 6.79877H17.2146V8.06219H7.19434V6.79877Z" fill="#FF6722"/>
<path d="M7.19434 9.49408H17.2146V10.7575H7.19434V9.49408Z" fill="#FF6722"/>
<path d="M7.19434 12.1894H17.2146V13.4528H7.19434V12.1894Z" fill="#FF6722"/>
</svg>
